<svg xmlns="http://www.w3.org/2000/svg" viewBox="0 0 720 360" fill="none">
  <style>
    @import url('https://fonts.googleapis.com/css2?family=Patrick+Hand&display=swap');
    text { font-family: 'Patrick Hand', 'Segoe Print', cursive; }
  </style><rect width="720" height="360" fill="#121212"/><g><path d="M 49.6,41.4 L 227.8,43.6 L 229.5,161.6 L 47.8,163.5 Z" stroke="#f5f5f5" stroke-width="2" fill="none" stroke-linecap="round" stroke-linejoin="round" opacity="0.95"/><path d="M 49.8,44.3 L 225.9,43.2 L 227.1,161.0 L 49.5,161.3 Z" stroke="#f5f5f5" stroke-width="1" fill="none" opacity="0.35"/><text x="88" y="72" fill="#fab005" font-size="17">浏览器 UI</text><text x="68" y="98" fill="#f5f5f5" font-size="12">www/sz · sz-docs · sz-cfg</text><text x="78" y="122" fill="#f5f5f5" font-size="13">对话 · 资料 · 设置</text><text x="108" y="148" fill="#868e96" font-size="12">只调 API</text><path d="M 233.4,101.6 Q 291.7,100.8 351.1,103.3" stroke="#fab005" stroke-width="2" fill="none" stroke-linecap="round" stroke-linejoin="round"/><path d="M 352.0,102.0 L 359.7,97.4 M 352.0,102.0 L 359.7,106.6" stroke="#fab005" stroke-width="2" fill="none" stroke-linecap="round"/><text x="262" y="88" fill="#fab005" font-size="13">HTTP</text><text x="252" y="118" fill="#f5f5f5" font-size="12">/api/v1/*</text><path d="M 357.0,42.0 L 662.4,43.0 L 660.5,168.8 L 357.9,167.3 Z" stroke="#f5f5f5" stroke-width="2" fill="none" stroke-linecap="round" stroke-linejoin="round" opacity="0.95"/><path d="M 360.2,43.9 L 659.9,43.1 L 660.1,166.4 L 359.0,166.7 Z" stroke="#f5f5f5" stroke-width="1" fill="none" opacity="0.35"/><text x="388" y="78" fill="#fab005" font-size="17">本地 FastAPI</text><text x="368" y="108" fill="#f5f5f5" font-size="14">入库 · 检索 · 生成 · 拒答</text><text x="378" y="132" fill="#f5f5f5" font-size="12">llm_providers · embedding</text><text x="448" y="152" fill="#868e96" font-size="12">services/</text><path d="M 508.0,170.8 Q 511.0,207.9 507.6,247.3" stroke="#f783ac" stroke-width="2" fill="none" stroke-linecap="round" stroke-linejoin="round"/><path d="M 508.0,248.0 L 512.6,255.7 M 508.0,248.0 L 503.4,255.7" stroke="#f783ac" stroke-width="2" fill="none" stroke-linecap="round"/><ellipse cx="508" cy="272" rx="118" ry="20" stroke="#f5f5f5" stroke-width="2" fill="none"/><path d="M390,272 C388,302 390,310 390,310 L626,312 C628,284 626,272 626,272" stroke="#f5f5f5" stroke-width="2" fill="none" stroke-linecap="round"/><ellipse cx="508" cy="312" rx="118" ry="20" stroke="#f5f5f5" stroke-width="2" fill="#4dabf7" fill-opacity="0.15"/><path d="M390,272 L390,312 M626,272 L626,312" stroke="#f5f5f5" stroke-width="2"/><text x="418" y="298" fill="#fab005" font-size="15">Chroma + SQLite</text><text x="398" y="318" fill="#868e96" font-size="11">course_id 隔离</text><text x="48" y="340" fill="#868e96" font-size="12">UI 不写 RAG；按课程过滤向量与文档</text></g></svg>